<?xml version="1.0" encoding="utf-8" standalone="no"?>
<!DOCTYPE svg PUBLIC "-//W3C//DTD SVG 1.1//EN"
  "http://www.w3.org/Graphics/SVG/1.1/DTD/svg11.dtd">
<svg xmlns:xlink="http://www.w3.org/1999/xlink" width="519.909054pt" height="339.903562pt" viewBox="0 0 519.909054 339.903562" xmlns="http://www.w3.org/2000/svg" version="1.1">
 <metadata>
  <rdf:RDF xmlns:dc="http://purl.org/dc/elements/1.1/" xmlns:cc="http://creativecommons.org/ns#" xmlns:rdf="http://www.w3.org/1999/02/22-rdf-syntax-ns#">
   <cc:Work>
    <dc:type rdf:resource="http://purl.org/dc/dcmitype/StillImage"/>
    <dc:date>2022-08-04T10:14:02.838204</dc:date>
    <dc:format>image/svg+xml</dc:format>
    <dc:creator>
     <cc:Agent>
      <dc:title>Matplotlib v3.5.1, https://matplotlib.org/</dc:title>
     </cc:Agent>
    </dc:creator>
   </cc:Work>
  </rdf:RDF>
 </metadata>
 <defs>
  <style type="text/css">*{stroke-linejoin: round; stroke-linecap: butt}</style>
 </defs>
 <g id="figure_1">
  <g id="patch_1">
   <path d="M 0 339.903562 
L 519.909054 339.903562 
L 519.909054 0 
L 0 0 
L 0 339.903562 
z
" style="fill: none"/>
  </g>
  <g id="axes_1">
   <g id="patch_2">
    <path d="M 64.225 294.604812 
L 460.543533 294.604812 
L 460.543533 52.306616 
L 64.225 52.306616 
z
" style="fill: #ffffff"/>
   </g>
   <g id="PathCollection_1">
    <defs>
     <path id="m3da483401d" d="M 0 3 
C 0.795609 3 1.55874 2.683901 2.12132 2.12132 
C 2.683901 1.55874 3 0.795609 3 0 
C 3 -0.795609 2.683901 -1.55874 2.12132 -2.12132 
C 1.55874 -2.683901 0.795609 -3 0 -3 
C -0.795609 -3 -1.55874 -2.683901 -2.12132 -2.12132 
C -2.683901 -1.55874 -3 -0.795609 -3 0 
C -3 0.795609 -2.683901 1.55874 -2.12132 2.12132 
C -1.55874 2.683901 -0.795609 3 0 3 
z
" style="stroke: #1f77b4"/>
    </defs>
    <g clip-path="url(#p985ac31528)">
     <use xlink:href="#m3da483401d" x="82.239479" y="279.686092" style="fill: #1f77b4; stroke: #1f77b4"/>
     <use xlink:href="#m3da483401d" x="82.239479" y="253.734045" style="fill: #1f77b4; stroke: #1f77b4"/>
     <use xlink:href="#m3da483401d" x="82.239479" y="233.540881" style="fill: #1f77b4; stroke: #1f77b4"/>
     <use xlink:href="#m3da483401d" x="122.271654" y="175.556594" style="fill: #1f77b4; stroke: #1f77b4"/>
     <use xlink:href="#m3da483401d" x="402.496879" y="220.391844" style="fill: #1f77b4; stroke: #1f77b4"/>
     <use xlink:href="#m3da483401d" x="402.496879" y="231.90961" style="fill: #1f77b4; stroke: #1f77b4"/>
     <use xlink:href="#m3da483401d" x="402.496879" y="125.283772" style="fill: #1f77b4; stroke: #1f77b4"/>
     <use xlink:href="#m3da483401d" x="402.496879" y="119.599037" style="fill: #1f77b4; stroke: #1f77b4"/>
     <use xlink:href="#m3da483401d" x="402.496879" y="237.396614" style="fill: #1f77b4; stroke: #1f77b4"/>
     <use xlink:href="#m3da483401d" x="402.496879" y="232.057907" style="fill: #1f77b4; stroke: #1f77b4"/>
     <use xlink:href="#m3da483401d" x="402.496879" y="125.481501" style="fill: #1f77b4; stroke: #1f77b4"/>
     <use xlink:href="#m3da483401d" x="402.496879" y="125.382636" style="fill: #1f77b4; stroke: #1f77b4"/>
     <use xlink:href="#m3da483401d" x="82.239479" y="275.088873" style="fill: #1f77b4; stroke: #1f77b4"/>
     <use xlink:href="#m3da483401d" x="122.271654" y="283.591257" style="fill: #1f77b4; stroke: #1f77b4"/>
     <use xlink:href="#m3da483401d" x="122.271654" y="190.831227" style="fill: #1f77b4; stroke: #1f77b4"/>
     <use xlink:href="#m3da483401d" x="122.271654" y="194.662243" style="fill: #1f77b4; stroke: #1f77b4"/>
     <use xlink:href="#m3da483401d" x="402.496879" y="278.104253" style="fill: #1f77b4; stroke: #1f77b4"/>
     <use xlink:href="#m3da483401d" x="402.496879" y="252.300504" style="fill: #1f77b4; stroke: #1f77b4"/>
     <use xlink:href="#m3da483401d" x="402.496879" y="140.212378" style="fill: #1f77b4; stroke: #1f77b4"/>
     <use xlink:href="#m3da483401d" x="402.496879" y="169.797711" style="fill: #1f77b4; stroke: #1f77b4"/>
     <use xlink:href="#m3da483401d" x="402.496879" y="281.712824" style="fill: #1f77b4; stroke: #1f77b4"/>
     <use xlink:href="#m3da483401d" x="402.496879" y="264.362026" style="fill: #1f77b4; stroke: #1f77b4"/>
     <use xlink:href="#m3da483401d" x="402.496879" y="111.04722" style="fill: #1f77b4; stroke: #1f77b4"/>
     <use xlink:href="#m3da483401d" x="442.529054" y="181.809801" style="fill: #1f77b4; stroke: #1f77b4"/>
     <use xlink:href="#m3da483401d" x="162.303829" y="165.200491" style="fill: #1f77b4; stroke: #1f77b4"/>
     <use xlink:href="#m3da483401d" x="162.303829" y="164.310707" style="fill: #1f77b4; stroke: #1f77b4"/>
     <use xlink:href="#m3da483401d" x="362.464704" y="134.478211" style="fill: #1f77b4; stroke: #1f77b4"/>
     <use xlink:href="#m3da483401d" x="362.464704" y="122.095377" style="fill: #1f77b4; stroke: #1f77b4"/>
     <use xlink:href="#m3da483401d" x="362.464704" y="82.796563" style="fill: #1f77b4; stroke: #1f77b4"/>
     <use xlink:href="#m3da483401d" x="362.464704" y="66.904024" style="fill: #1f77b4; stroke: #1f77b4"/>
     <use xlink:href="#m3da483401d" x="162.303829" y="229.141391" style="fill: #1f77b4; stroke: #1f77b4"/>
     <use xlink:href="#m3da483401d" x="162.303829" y="229.635716" style="fill: #1f77b4; stroke: #1f77b4"/>
     <use xlink:href="#m3da483401d" x="362.464704" y="63.32017" style="fill: #1f77b4; stroke: #1f77b4"/>
     <use xlink:href="#m3da483401d" x="362.464704" y="132.476196" style="fill: #1f77b4; stroke: #1f77b4"/>
     <use xlink:href="#m3da483401d" x="362.464704" y="175.012837" style="fill: #1f77b4; stroke: #1f77b4"/>
     <use xlink:href="#m3da483401d" x="362.464704" y="63.542616" style="fill: #1f77b4; stroke: #1f77b4"/>
     <use xlink:href="#m3da483401d" x="122.271654" y="193.673594" style="fill: #1f77b4; stroke: #1f77b4"/>
     <use xlink:href="#m3da483401d" x="122.271654" y="189.199956" style="fill: #1f77b4; stroke: #1f77b4"/>
    </g>
   </g>
   <g id="matplotlib.axis_1">
    <g id="xtick_1">
     <g id="line2d_1">
      <defs>
       <path id="ma9d75b1aa6" d="M 0 0 
L 0 3.5 
" style="stroke: #000000; stroke-width: 0.8"/>
      </defs>
      <g>
       <use xlink:href="#ma9d75b1aa6" x="122.271654" y="294.604812" style="stroke: #000000; stroke-width: 0.8"/>
      </g>
     </g>
     <g id="text_1">
      <!-- 1340 -->
      <g transform="translate(107.001654 310.722937)scale(0.12 -0.12)">
       <defs>
        <path id="DejaVuSans-31" d="M 794 531 
L 1825 531 
L 1825 4091 
L 703 3866 
L 703 4441 
L 1819 4666 
L 2450 4666 
L 2450 531 
L 3481 531 
L 3481 0 
L 794 0 
L 794 531 
z
" transform="scale(0.015625)"/>
        <path id="DejaVuSans-33" d="M 2597 2516 
Q 3050 2419 3304 2112 
Q 3559 1806 3559 1356 
Q 3559 666 3084 287 
Q 2609 -91 1734 -91 
Q 1441 -91 1130 -33 
Q 819 25 488 141 
L 488 750 
Q 750 597 1062 519 
Q 1375 441 1716 441 
Q 2309 441 2620 675 
Q 2931 909 2931 1356 
Q 2931 1769 2642 2001 
Q 2353 2234 1838 2234 
L 1294 2234 
L 1294 2753 
L 1863 2753 
Q 2328 2753 2575 2939 
Q 2822 3125 2822 3475 
Q 2822 3834 2567 4026 
Q 2313 4219 1838 4219 
Q 1578 4219 1281 4162 
Q 984 4106 628 3988 
L 628 4550 
Q 988 4650 1302 4700 
Q 1616 4750 1894 4750 
Q 2613 4750 3031 4423 
Q 3450 4097 3450 3541 
Q 3450 3153 3228 2886 
Q 3006 2619 2597 2516 
z
" transform="scale(0.015625)"/>
        <path id="DejaVuSans-34" d="M 2419 4116 
L 825 1625 
L 2419 1625 
L 2419 4116 
z
M 2253 4666 
L 3047 4666 
L 3047 1625 
L 3713 1625 
L 3713 1100 
L 3047 1100 
L 3047 0 
L 2419 0 
L 2419 1100 
L 313 1100 
L 313 1709 
L 2253 4666 
z
" transform="scale(0.015625)"/>
        <path id="DejaVuSans-30" d="M 2034 4250 
Q 1547 4250 1301 3770 
Q 1056 3291 1056 2328 
Q 1056 1369 1301 889 
Q 1547 409 2034 409 
Q 2525 409 2770 889 
Q 3016 1369 3016 2328 
Q 3016 3291 2770 3770 
Q 2525 4250 2034 4250 
z
M 2034 4750 
Q 2819 4750 3233 4129 
Q 3647 3509 3647 2328 
Q 3647 1150 3233 529 
Q 2819 -91 2034 -91 
Q 1250 -91 836 529 
Q 422 1150 422 2328 
Q 422 3509 836 4129 
Q 1250 4750 2034 4750 
z
" transform="scale(0.015625)"/>
       </defs>
       <use xlink:href="#DejaVuSans-31"/>
       <use xlink:href="#DejaVuSans-33" x="63.623047"/>
       <use xlink:href="#DejaVuSans-34" x="127.246094"/>
       <use xlink:href="#DejaVuSans-30" x="190.869141"/>
      </g>
     </g>
    </g>
    <g id="xtick_2">
     <g id="line2d_2">
      <g>
       <use xlink:href="#ma9d75b1aa6" x="202.336004" y="294.604812" style="stroke: #000000; stroke-width: 0.8"/>
      </g>
     </g>
     <g id="text_2">
      <!-- 1360 -->
      <g transform="translate(187.066004 310.722937)scale(0.12 -0.12)">
       <defs>
        <path id="DejaVuSans-36" d="M 2113 2584 
Q 1688 2584 1439 2293 
Q 1191 2003 1191 1497 
Q 1191 994 1439 701 
Q 1688 409 2113 409 
Q 2538 409 2786 701 
Q 3034 994 3034 1497 
Q 3034 2003 2786 2293 
Q 2538 2584 2113 2584 
z
M 3366 4563 
L 3366 3988 
Q 3128 4100 2886 4159 
Q 2644 4219 2406 4219 
Q 1781 4219 1451 3797 
Q 1122 3375 1075 2522 
Q 1259 2794 1537 2939 
Q 1816 3084 2150 3084 
Q 2853 3084 3261 2657 
Q 3669 2231 3669 1497 
Q 3669 778 3244 343 
Q 2819 -91 2113 -91 
Q 1303 -91 875 529 
Q 447 1150 447 2328 
Q 447 3434 972 4092 
Q 1497 4750 2381 4750 
Q 2619 4750 2861 4703 
Q 3103 4656 3366 4563 
z
" transform="scale(0.015625)"/>
       </defs>
       <use xlink:href="#DejaVuSans-31"/>
       <use xlink:href="#DejaVuSans-33" x="63.623047"/>
       <use xlink:href="#DejaVuSans-36" x="127.246094"/>
       <use xlink:href="#DejaVuSans-30" x="190.869141"/>
      </g>
     </g>
    </g>
    <g id="xtick_3">
     <g id="line2d_3">
      <g>
       <use xlink:href="#ma9d75b1aa6" x="282.400354" y="294.604812" style="stroke: #000000; stroke-width: 0.8"/>
      </g>
     </g>
     <g id="text_3">
      <!-- 1380 -->
      <g transform="translate(267.130354 310.722937)scale(0.12 -0.12)">
       <defs>
        <path id="DejaVuSans-38" d="M 2034 2216 
Q 1584 2216 1326 1975 
Q 1069 1734 1069 1313 
Q 1069 891 1326 650 
Q 1584 409 2034 409 
Q 2484 409 2743 651 
Q 3003 894 3003 1313 
Q 3003 1734 2745 1975 
Q 2488 2216 2034 2216 
z
M 1403 2484 
Q 997 2584 770 2862 
Q 544 3141 544 3541 
Q 544 4100 942 4425 
Q 1341 4750 2034 4750 
Q 2731 4750 3128 4425 
Q 3525 4100 3525 3541 
Q 3525 3141 3298 2862 
Q 3072 2584 2669 2484 
Q 3125 2378 3379 2068 
Q 3634 1759 3634 1313 
Q 3634 634 3220 271 
Q 2806 -91 2034 -91 
Q 1263 -91 848 271 
Q 434 634 434 1313 
Q 434 1759 690 2068 
Q 947 2378 1403 2484 
z
M 1172 3481 
Q 1172 3119 1398 2916 
Q 1625 2713 2034 2713 
Q 2441 2713 2670 2916 
Q 2900 3119 2900 3481 
Q 2900 3844 2670 4047 
Q 2441 4250 2034 4250 
Q 1625 4250 1398 4047 
Q 1172 3844 1172 3481 
z
" transform="scale(0.015625)"/>
       </defs>
       <use xlink:href="#DejaVuSans-31"/>
       <use xlink:href="#DejaVuSans-33" x="63.623047"/>
       <use xlink:href="#DejaVuSans-38" x="127.246094"/>
       <use xlink:href="#DejaVuSans-30" x="190.869141"/>
      </g>
     </g>
    </g>
    <g id="xtick_4">
     <g id="line2d_4">
      <g>
       <use xlink:href="#ma9d75b1aa6" x="362.464704" y="294.604812" style="stroke: #000000; stroke-width: 0.8"/>
      </g>
     </g>
     <g id="text_4">
      <!-- 1400 -->
      <g transform="translate(347.194704 310.722937)scale(0.12 -0.12)">
       <use xlink:href="#DejaVuSans-31"/>
       <use xlink:href="#DejaVuSans-34" x="63.623047"/>
       <use xlink:href="#DejaVuSans-30" x="127.246094"/>
       <use xlink:href="#DejaVuSans-30" x="190.869141"/>
      </g>
     </g>
    </g>
    <g id="xtick_5">
     <g id="line2d_5">
      <g>
       <use xlink:href="#ma9d75b1aa6" x="442.529054" y="294.604812" style="stroke: #000000; stroke-width: 0.8"/>
      </g>
     </g>
     <g id="text_5">
      <!-- 1420 -->
      <g transform="translate(427.259054 310.722937)scale(0.12 -0.12)">
       <defs>
        <path id="DejaVuSans-32" d="M 1228 531 
L 3431 531 
L 3431 0 
L 469 0 
L 469 531 
Q 828 903 1448 1529 
Q 2069 2156 2228 2338 
Q 2531 2678 2651 2914 
Q 2772 3150 2772 3378 
Q 2772 3750 2511 3984 
Q 2250 4219 1831 4219 
Q 1534 4219 1204 4116 
Q 875 4013 500 3803 
L 500 4441 
Q 881 4594 1212 4672 
Q 1544 4750 1819 4750 
Q 2544 4750 2975 4387 
Q 3406 4025 3406 3419 
Q 3406 3131 3298 2873 
Q 3191 2616 2906 2266 
Q 2828 2175 2409 1742 
Q 1991 1309 1228 531 
z
" transform="scale(0.015625)"/>
       </defs>
       <use xlink:href="#DejaVuSans-31"/>
       <use xlink:href="#DejaVuSans-34" x="63.623047"/>
       <use xlink:href="#DejaVuSans-32" x="127.246094"/>
       <use xlink:href="#DejaVuSans-30" x="190.869141"/>
      </g>
     </g>
    </g>
    <g id="text_6">
     <!-- BLAKE2-256 -->
     <g transform="translate(213.238017 329.376062)scale(0.16 -0.16)">
      <defs>
       <path id="DejaVuSans-42" d="M 1259 2228 
L 1259 519 
L 2272 519 
Q 2781 519 3026 730 
Q 3272 941 3272 1375 
Q 3272 1813 3026 2020 
Q 2781 2228 2272 2228 
L 1259 2228 
z
M 1259 4147 
L 1259 2741 
L 2194 2741 
Q 2656 2741 2882 2914 
Q 3109 3088 3109 3444 
Q 3109 3797 2882 3972 
Q 2656 4147 2194 4147 
L 1259 4147 
z
M 628 4666 
L 2241 4666 
Q 2963 4666 3353 4366 
Q 3744 4066 3744 3513 
Q 3744 3084 3544 2831 
Q 3344 2578 2956 2516 
Q 3422 2416 3680 2098 
Q 3938 1781 3938 1306 
Q 3938 681 3513 340 
Q 3088 0 2303 0 
L 628 0 
L 628 4666 
z
" transform="scale(0.015625)"/>
       <path id="DejaVuSans-4c" d="M 628 4666 
L 1259 4666 
L 1259 531 
L 3531 531 
L 3531 0 
L 628 0 
L 628 4666 
z
" transform="scale(0.015625)"/>
       <path id="DejaVuSans-41" d="M 2188 4044 
L 1331 1722 
L 3047 1722 
L 2188 4044 
z
M 1831 4666 
L 2547 4666 
L 4325 0 
L 3669 0 
L 3244 1197 
L 1141 1197 
L 716 0 
L 50 0 
L 1831 4666 
z
" transform="scale(0.015625)"/>
       <path id="DejaVuSans-4b" d="M 628 4666 
L 1259 4666 
L 1259 2694 
L 3353 4666 
L 4166 4666 
L 1850 2491 
L 4331 0 
L 3500 0 
L 1259 2247 
L 1259 0 
L 628 0 
L 628 4666 
z
" transform="scale(0.015625)"/>
       <path id="DejaVuSans-45" d="M 628 4666 
L 3578 4666 
L 3578 4134 
L 1259 4134 
L 1259 2753 
L 3481 2753 
L 3481 2222 
L 1259 2222 
L 1259 531 
L 3634 531 
L 3634 0 
L 628 0 
L 628 4666 
z
" transform="scale(0.015625)"/>
       <path id="DejaVuSans-2d" d="M 313 2009 
L 1997 2009 
L 1997 1497 
L 313 1497 
L 313 2009 
z
" transform="scale(0.015625)"/>
       <path id="DejaVuSans-35" d="M 691 4666 
L 3169 4666 
L 3169 4134 
L 1269 4134 
L 1269 2991 
Q 1406 3038 1543 3061 
Q 1681 3084 1819 3084 
Q 2600 3084 3056 2656 
Q 3513 2228 3513 1497 
Q 3513 744 3044 326 
Q 2575 -91 1722 -91 
Q 1428 -91 1123 -41 
Q 819 9 494 109 
L 494 744 
Q 775 591 1075 516 
Q 1375 441 1709 441 
Q 2250 441 2565 725 
Q 2881 1009 2881 1497 
Q 2881 1984 2565 2268 
Q 2250 2553 1709 2553 
Q 1456 2553 1204 2497 
Q 953 2441 691 2322 
L 691 4666 
z
" transform="scale(0.015625)"/>
      </defs>
      <use xlink:href="#DejaVuSans-42"/>
      <use xlink:href="#DejaVuSans-4c" x="68.603516"/>
      <use xlink:href="#DejaVuSans-41" x="126.566406"/>
      <use xlink:href="#DejaVuSans-4b" x="194.974609"/>
      <use xlink:href="#DejaVuSans-45" x="260.550781"/>
      <use xlink:href="#DejaVuSans-32" x="323.734375"/>
      <use xlink:href="#DejaVuSans-2d" x="387.357422"/>
      <use xlink:href="#DejaVuSans-32" x="423.441406"/>
      <use xlink:href="#DejaVuSans-35" x="487.064453"/>
      <use xlink:href="#DejaVuSans-36" x="550.6875"/>
     </g>
    </g>
   </g>
   <g id="matplotlib.axis_2">
    <g id="ytick_1">
     <g id="line2d_6">
      <defs>
       <path id="m86bea64fc8" d="M 0 0 
L -3.5 0 
" style="stroke: #000000; stroke-width: 0.8"/>
      </defs>
      <g>
       <use xlink:href="#m86bea64fc8" x="64.225" y="273.877777" style="stroke: #000000; stroke-width: 0.8"/>
      </g>
     </g>
     <g id="text_7">
      <!-- 980 -->
      <g transform="translate(34.32 278.436839)scale(0.12 -0.12)">
       <defs>
        <path id="DejaVuSans-39" d="M 703 97 
L 703 672 
Q 941 559 1184 500 
Q 1428 441 1663 441 
Q 2288 441 2617 861 
Q 2947 1281 2994 2138 
Q 2813 1869 2534 1725 
Q 2256 1581 1919 1581 
Q 1219 1581 811 2004 
Q 403 2428 403 3163 
Q 403 3881 828 4315 
Q 1253 4750 1959 4750 
Q 2769 4750 3195 4129 
Q 3622 3509 3622 2328 
Q 3622 1225 3098 567 
Q 2575 -91 1691 -91 
Q 1453 -91 1209 -44 
Q 966 3 703 97 
z
M 1959 2075 
Q 2384 2075 2632 2365 
Q 2881 2656 2881 3163 
Q 2881 3666 2632 3958 
Q 2384 4250 1959 4250 
Q 1534 4250 1286 3958 
Q 1038 3666 1038 3163 
Q 1038 2656 1286 2365 
Q 1534 2075 1959 2075 
z
" transform="scale(0.015625)"/>
       </defs>
       <use xlink:href="#DejaVuSans-39"/>
       <use xlink:href="#DejaVuSans-38" x="63.623047"/>
       <use xlink:href="#DejaVuSans-30" x="127.246094"/>
      </g>
     </g>
    </g>
    <g id="ytick_2">
     <g id="line2d_7">
      <g>
       <use xlink:href="#m86bea64fc8" x="64.225" y="224.445307" style="stroke: #000000; stroke-width: 0.8"/>
      </g>
     </g>
     <g id="text_8">
      <!-- 990 -->
      <g transform="translate(34.32 229.004369)scale(0.12 -0.12)">
       <use xlink:href="#DejaVuSans-39"/>
       <use xlink:href="#DejaVuSans-39" x="63.623047"/>
       <use xlink:href="#DejaVuSans-30" x="127.246094"/>
      </g>
     </g>
    </g>
    <g id="ytick_3">
     <g id="line2d_8">
      <g>
       <use xlink:href="#m86bea64fc8" x="64.225" y="175.012837" style="stroke: #000000; stroke-width: 0.8"/>
      </g>
     </g>
     <g id="text_9">
      <!-- 1000 -->
      <g transform="translate(26.685 179.571899)scale(0.12 -0.12)">
       <use xlink:href="#DejaVuSans-31"/>
       <use xlink:href="#DejaVuSans-30" x="63.623047"/>
       <use xlink:href="#DejaVuSans-30" x="127.246094"/>
       <use xlink:href="#DejaVuSans-30" x="190.869141"/>
      </g>
     </g>
    </g>
    <g id="ytick_4">
     <g id="line2d_9">
      <g>
       <use xlink:href="#m86bea64fc8" x="64.225" y="125.580366" style="stroke: #000000; stroke-width: 0.8"/>
      </g>
     </g>
     <g id="text_10">
      <!-- 1010 -->
      <g transform="translate(26.685 130.139429)scale(0.12 -0.12)">
       <use xlink:href="#DejaVuSans-31"/>
       <use xlink:href="#DejaVuSans-30" x="63.623047"/>
       <use xlink:href="#DejaVuSans-31" x="127.246094"/>
       <use xlink:href="#DejaVuSans-30" x="190.869141"/>
      </g>
     </g>
    </g>
    <g id="ytick_5">
     <g id="line2d_10">
      <g>
       <use xlink:href="#m86bea64fc8" x="64.225" y="76.147896" style="stroke: #000000; stroke-width: 0.8"/>
      </g>
     </g>
     <g id="text_11">
      <!-- 1020 -->
      <g transform="translate(26.685 80.706959)scale(0.12 -0.12)">
       <use xlink:href="#DejaVuSans-31"/>
       <use xlink:href="#DejaVuSans-30" x="63.623047"/>
       <use xlink:href="#DejaVuSans-32" x="127.246094"/>
       <use xlink:href="#DejaVuSans-30" x="190.869141"/>
      </g>
     </g>
    </g>
    <g id="text_12">
     <!-- SR25519-Verify -->
     <g transform="translate(19.3575 234.656964)rotate(-90)scale(0.16 -0.16)">
      <defs>
       <path id="DejaVuSans-53" d="M 3425 4513 
L 3425 3897 
Q 3066 4069 2747 4153 
Q 2428 4238 2131 4238 
Q 1616 4238 1336 4038 
Q 1056 3838 1056 3469 
Q 1056 3159 1242 3001 
Q 1428 2844 1947 2747 
L 2328 2669 
Q 3034 2534 3370 2195 
Q 3706 1856 3706 1288 
Q 3706 609 3251 259 
Q 2797 -91 1919 -91 
Q 1588 -91 1214 -16 
Q 841 59 441 206 
L 441 856 
Q 825 641 1194 531 
Q 1563 422 1919 422 
Q 2459 422 2753 634 
Q 3047 847 3047 1241 
Q 3047 1584 2836 1778 
Q 2625 1972 2144 2069 
L 1759 2144 
Q 1053 2284 737 2584 
Q 422 2884 422 3419 
Q 422 4038 858 4394 
Q 1294 4750 2059 4750 
Q 2388 4750 2728 4690 
Q 3069 4631 3425 4513 
z
" transform="scale(0.015625)"/>
       <path id="DejaVuSans-52" d="M 2841 2188 
Q 3044 2119 3236 1894 
Q 3428 1669 3622 1275 
L 4263 0 
L 3584 0 
L 2988 1197 
Q 2756 1666 2539 1819 
Q 2322 1972 1947 1972 
L 1259 1972 
L 1259 0 
L 628 0 
L 628 4666 
L 2053 4666 
Q 2853 4666 3247 4331 
Q 3641 3997 3641 3322 
Q 3641 2881 3436 2590 
Q 3231 2300 2841 2188 
z
M 1259 4147 
L 1259 2491 
L 2053 2491 
Q 2509 2491 2742 2702 
Q 2975 2913 2975 3322 
Q 2975 3731 2742 3939 
Q 2509 4147 2053 4147 
L 1259 4147 
z
" transform="scale(0.015625)"/>
       <path id="DejaVuSans-56" d="M 1831 0 
L 50 4666 
L 709 4666 
L 2188 738 
L 3669 4666 
L 4325 4666 
L 2547 0 
L 1831 0 
z
" transform="scale(0.015625)"/>
       <path id="DejaVuSans-65" d="M 3597 1894 
L 3597 1613 
L 953 1613 
Q 991 1019 1311 708 
Q 1631 397 2203 397 
Q 2534 397 2845 478 
Q 3156 559 3463 722 
L 3463 178 
Q 3153 47 2828 -22 
Q 2503 -91 2169 -91 
Q 1331 -91 842 396 
Q 353 884 353 1716 
Q 353 2575 817 3079 
Q 1281 3584 2069 3584 
Q 2775 3584 3186 3129 
Q 3597 2675 3597 1894 
z
M 3022 2063 
Q 3016 2534 2758 2815 
Q 2500 3097 2075 3097 
Q 1594 3097 1305 2825 
Q 1016 2553 972 2059 
L 3022 2063 
z
" transform="scale(0.015625)"/>
       <path id="DejaVuSans-72" d="M 2631 2963 
Q 2534 3019 2420 3045 
Q 2306 3072 2169 3072 
Q 1681 3072 1420 2755 
Q 1159 2438 1159 1844 
L 1159 0 
L 581 0 
L 581 3500 
L 1159 3500 
L 1159 2956 
Q 1341 3275 1631 3429 
Q 1922 3584 2338 3584 
Q 2397 3584 2469 3576 
Q 2541 3569 2628 3553 
L 2631 2963 
z
" transform="scale(0.015625)"/>
       <path id="DejaVuSans-69" d="M 603 3500 
L 1178 3500 
L 1178 0 
L 603 0 
L 603 3500 
z
M 603 4863 
L 1178 4863 
L 1178 4134 
L 603 4134 
L 603 4863 
z
" transform="scale(0.015625)"/>
       <path id="DejaVuSans-66" d="M 2375 4863 
L 2375 4384 
L 1825 4384 
Q 1516 4384 1395 4259 
Q 1275 4134 1275 3809 
L 1275 3500 
L 2222 3500 
L 2222 3053 
L 1275 3053 
L 1275 0 
L 697 0 
L 697 3053 
L 147 3053 
L 147 3500 
L 697 3500 
L 697 3744 
Q 697 4328 969 4595 
Q 1241 4863 1831 4863 
L 2375 4863 
z
" transform="scale(0.015625)"/>
       <path id="DejaVuSans-79" d="M 2059 -325 
Q 1816 -950 1584 -1140 
Q 1353 -1331 966 -1331 
L 506 -1331 
L 506 -850 
L 844 -850 
Q 1081 -850 1212 -737 
Q 1344 -625 1503 -206 
L 1606 56 
L 191 3500 
L 800 3500 
L 1894 763 
L 2988 3500 
L 3597 3500 
L 2059 -325 
z
" transform="scale(0.015625)"/>
      </defs>
      <use xlink:href="#DejaVuSans-53"/>
      <use xlink:href="#DejaVuSans-52" x="63.476562"/>
      <use xlink:href="#DejaVuSans-32" x="132.958984"/>
      <use xlink:href="#DejaVuSans-35" x="196.582031"/>
      <use xlink:href="#DejaVuSans-35" x="260.205078"/>
      <use xlink:href="#DejaVuSans-31" x="323.828125"/>
      <use xlink:href="#DejaVuSans-39" x="387.451172"/>
      <use xlink:href="#DejaVuSans-2d" x="451.074219"/>
      <use xlink:href="#DejaVuSans-56" x="481.283203"/>
      <use xlink:href="#DejaVuSans-65" x="541.941406"/>
      <use xlink:href="#DejaVuSans-72" x="603.464844"/>
      <use xlink:href="#DejaVuSans-69" x="644.578125"/>
      <use xlink:href="#DejaVuSans-66" x="672.361328"/>
      <use xlink:href="#DejaVuSans-79" x="705.816406"/>
     </g>
    </g>
   </g>
   <g id="patch_3">
    <path d="M 64.225 294.604812 
L 64.225 52.306616 
" style="fill: none; stroke: #000000; stroke-width: 0.8; stroke-linejoin: miter; stroke-linecap: square"/>
   </g>
   <g id="patch_4">
    <path d="M 460.543533 294.604812 
L 460.543533 52.306616 
" style="fill: none; stroke: #000000; stroke-width: 0.8; stroke-linejoin: miter; stroke-linecap: square"/>
   </g>
   <g id="patch_5">
    <path d="M 64.225 294.604812 
L 460.543533 294.604812 
" style="fill: none; stroke: #000000; stroke-width: 0.8; stroke-linejoin: miter; stroke-linecap: square"/>
   </g>
   <g id="patch_6">
    <path d="M 64.225 52.306616 
L 460.543533 52.306616 
" style="fill: none; stroke: #000000; stroke-width: 0.8; stroke-linejoin: miter; stroke-linecap: square"/>
   </g>
   <g id="patch_7">
    <path d="M 409.704988 78.719818 
Q 406.274493 98.175123 403.038143 116.529379 
" style="fill: none; stroke: #000000; stroke-linecap: round"/>
    <path d="M 407.300876 110.782284 
L 403.038143 116.529379 
L 400.998106 109.670935 
" style="fill: none; stroke: #000000; stroke-linecap: round"/>
   </g>
   <g id="text_13">
    <g id="patch_8">
     <path d="M 402.73577 76.253072 
L 423.09577 76.253072 
Q 431.09577 76.253072 431.09577 68.253072 
L 431.09577 52.768072 
Q 431.09577 44.768072 423.09577 44.768072 
L 402.73577 44.768072 
Q 394.73577 44.768072 394.73577 52.768072 
L 394.73577 68.253072 
Q 394.73577 76.253072 402.73577 76.253072 
z
" style="fill: #90ee90; opacity: 0.5; stroke: #000000; stroke-linejoin: miter"/>
    </g>
    <!-- 17 -->
    <g transform="translate(402.73577 64.925572)scale(0.16 -0.16)">
     <defs>
      <path id="DejaVuSans-37" d="M 525 4666 
L 3525 4666 
L 3525 4397 
L 1831 0 
L 1172 0 
L 2766 4134 
L 525 4134 
L 525 4666 
z
" transform="scale(0.015625)"/>
     </defs>
     <use xlink:href="#DejaVuSans-31"/>
     <use xlink:href="#DejaVuSans-37" x="63.623047"/>
    </g>
   </g>
   <g id="patch_9">
    <path d="M 441.816555 125.481501 
Q 423.157468 125.481501 405.616415 125.481501 
" style="fill: none; stroke: #000000; stroke-linecap: round"/>
    <path d="M 412.016415 128.681501 
L 405.616415 125.481501 
L 412.016415 122.281501 
" style="fill: none; stroke: #000000; stroke-linecap: round"/>
   </g>
   <g id="text_14">
    <g id="patch_10">
     <path d="M 452.316879 141.224001 
L 472.676879 141.224001 
Q 480.676879 141.224001 480.676879 133.224001 
L 480.676879 117.739001 
Q 480.676879 109.739001 472.676879 109.739001 
L 452.316879 109.739001 
Q 444.316879 109.739001 444.316879 117.739001 
L 444.316879 133.224001 
Q 444.316879 141.224001 452.316879 141.224001 
z
" style="fill: #90ee90; opacity: 0.5; stroke: #000000; stroke-linejoin: miter"/>
    </g>
    <!-- 20 -->
    <g transform="translate(452.316879 129.896501)scale(0.16 -0.16)">
     <use xlink:href="#DejaVuSans-32"/>
     <use xlink:href="#DejaVuSans-30" x="63.623047"/>
    </g>
   </g>
   <g id="patch_11">
    <path d="M 382.874407 159.369755 
Q 392.186219 143.241224 400.939013 128.080939 
" style="fill: none; stroke: #000000; stroke-linecap: round"/>
    <path d="M 394.967732 132.023502 
L 400.939013 128.080939 
L 400.510295 135.223502 
" style="fill: none; stroke: #000000; stroke-linecap: round"/>
   </g>
   <g id="text_15">
    <g id="patch_12">
     <path d="M 362.316879 193.086661 
L 382.676879 193.086661 
Q 390.676879 193.086661 390.676879 185.086661 
L 390.676879 169.601661 
Q 390.676879 161.601661 382.676879 161.601661 
L 362.316879 161.601661 
Q 354.316879 161.601661 354.316879 169.601661 
L 354.316879 185.086661 
Q 354.316879 193.086661 362.316879 193.086661 
z
" style="fill: #90ee90; opacity: 0.5; stroke: #000000; stroke-linejoin: miter"/>
    </g>
    <!-- 21 -->
    <g transform="translate(362.316879 181.759161)scale(0.16 -0.16)">
     <use xlink:href="#DejaVuSans-32"/>
     <use xlink:href="#DejaVuSans-31" x="63.623047"/>
    </g>
   </g>
   <g id="patch_13">
    <path d="M 366.680095 98.010977 
Q 383.650657 104.187756 399.570612 109.982146 
" style="fill: none; stroke: #000000; stroke-linecap: round"/>
    <path d="M 394.651043 104.786201 
L 399.570612 109.982146 
L 392.462114 110.800233 
" style="fill: none; stroke: #000000; stroke-linecap: round"/>
   </g>
   <g id="text_16">
    <g id="patch_14">
     <path d="M 335.935322 106.268512 
L 356.295322 106.268512 
Q 364.295322 106.268512 364.295322 98.268512 
L 364.295322 82.783512 
Q 364.295322 74.783512 356.295322 74.783512 
L 335.935322 74.783512 
Q 327.935322 74.783512 327.935322 82.783512 
L 327.935322 98.268512 
Q 327.935322 106.268512 335.935322 106.268512 
z
" style="fill: #90ee90; opacity: 0.5; stroke: #000000; stroke-linejoin: miter"/>
    </g>
    <!-- 32 -->
    <g transform="translate(335.935322 94.941012)scale(0.16 -0.16)">
     <use xlink:href="#DejaVuSans-33"/>
     <use xlink:href="#DejaVuSans-32" x="63.623047"/>
    </g>
   </g>
   <g id="patch_15">
    <path d="M 481.84873 181.809801 
Q 463.189643 181.809801 445.64859 181.809801 
" style="fill: none; stroke: #000000; stroke-linecap: round"/>
    <path d="M 452.04859 185.009801 
L 445.64859 181.809801 
L 452.04859 178.609801 
" style="fill: none; stroke: #000000; stroke-linecap: round"/>
   </g>
   <g id="text_17">
    <g id="patch_16">
     <path d="M 492.349054 197.552301 
L 512.709054 197.552301 
Q 520.709054 197.552301 520.709054 189.552301 
L 520.709054 174.067301 
Q 520.709054 166.067301 512.709054 166.067301 
L 492.349054 166.067301 
Q 484.349054 166.067301 484.349054 174.067301 
L 484.349054 189.552301 
Q 484.349054 197.552301 492.349054 197.552301 
z
" style="fill: #90ee90; opacity: 0.5; stroke: #000000; stroke-linejoin: miter"/>
    </g>
    <!-- 33 -->
    <g transform="translate(492.349054 186.224801)scale(0.16 -0.16)">
     <use xlink:href="#DejaVuSans-33"/>
     <use xlink:href="#DejaVuSans-33" x="63.623047"/>
    </g>
   </g>
   <g id="patch_17">
    <path d="M 342.842232 32.916906 
Q 352.154044 49.045436 360.906838 64.205721 
" style="fill: none; stroke: #000000; stroke-linecap: round"/>
    <path d="M 360.478119 57.063159 
L 360.906838 64.205721 
L 354.935557 60.263159 
" style="fill: none; stroke: #000000; stroke-linecap: round"/>
   </g>
   <g id="text_18">
    <g id="patch_18">
     <path d="M 322.284704 30.685 
L 342.644704 30.685 
Q 350.644704 30.685 350.644704 22.685 
L 350.644704 7.2 
Q 350.644704 -0.8 342.644704 -0.8 
L 322.284704 -0.8 
Q 314.284704 -0.8 314.284704 7.2 
L 314.284704 22.685 
Q 314.284704 30.685 322.284704 30.685 
z
" style="fill: #90ee90; opacity: 0.5; stroke: #000000; stroke-linejoin: miter"/>
    </g>
    <!-- 39 -->
    <g transform="translate(322.284704 19.3575)scale(0.16 -0.16)">
     <use xlink:href="#DejaVuSans-33"/>
     <use xlink:href="#DejaVuSans-39" x="63.623047"/>
    </g>
   </g>
   <g id="patch_19">
    <path d="M 390.372095 40.125535 
Q 377.183196 51.192335 364.85076 61.540478 
" style="fill: none; stroke: #000000; stroke-linecap: round"/>
    <path d="M 371.810365 59.877979 
L 364.85076 61.540478 
L 367.696524 54.975295 
" style="fill: none; stroke: #000000; stroke-linecap: round"/>
   </g>
   <g id="text_19">
    <g id="patch_20">
     <path d="M 398.247371 40.71786 
L 418.607371 40.71786 
Q 426.607371 40.71786 426.607371 32.71786 
L 426.607371 17.23286 
Q 426.607371 9.23286 418.607371 9.23286 
L 398.247371 9.23286 
Q 390.247371 9.23286 390.247371 17.23286 
L 390.247371 32.71786 
Q 390.247371 40.71786 398.247371 40.71786 
z
" style="fill: #90ee90; opacity: 0.5; stroke: #000000; stroke-linejoin: miter"/>
    </g>
    <!-- 45 -->
    <g transform="translate(398.247371 29.39036)scale(0.16 -0.16)">
     <use xlink:href="#DejaVuSans-34"/>
     <use xlink:href="#DejaVuSans-35" x="63.623047"/>
    </g>
   </g>
   <g id="patch_21">
    <path d="M 129.479763 234.552813 
Q 126.049268 215.097508 122.812917 196.743252 
" style="fill: none; stroke: #000000; stroke-linecap: round"/>
    <path d="M 120.772881 203.601696 
L 122.812917 196.743252 
L 127.075651 202.490348 
" style="fill: none; stroke: #000000; stroke-linecap: round"/>
   </g>
   <g id="text_20">
    <g id="patch_22">
     <path d="M 105.764294 268.504559 
L 159.616794 268.504559 
Q 167.616794 268.504559 167.616794 260.504559 
L 167.616794 245.019559 
Q 167.616794 237.019559 159.616794 237.019559 
L 105.764294 237.019559 
Q 97.764294 237.019559 97.764294 245.019559 
L 97.764294 260.504559 
Q 97.764294 268.504559 105.764294 268.504559 
z
" style="fill: #90ee90; opacity: 0.5; stroke: #000000; stroke-linejoin: miter"/>
    </g>
    <!-- docker -->
    <g transform="translate(105.764294 257.177059)scale(0.16 -0.16)">
     <defs>
      <path id="DejaVuSans-64" d="M 2906 2969 
L 2906 4863 
L 3481 4863 
L 3481 0 
L 2906 0 
L 2906 525 
Q 2725 213 2448 61 
Q 2172 -91 1784 -91 
Q 1150 -91 751 415 
Q 353 922 353 1747 
Q 353 2572 751 3078 
Q 1150 3584 1784 3584 
Q 2172 3584 2448 3432 
Q 2725 3281 2906 2969 
z
M 947 1747 
Q 947 1113 1208 752 
Q 1469 391 1925 391 
Q 2381 391 2643 752 
Q 2906 1113 2906 1747 
Q 2906 2381 2643 2742 
Q 2381 3103 1925 3103 
Q 1469 3103 1208 2742 
Q 947 2381 947 1747 
z
" transform="scale(0.015625)"/>
      <path id="DejaVuSans-6f" d="M 1959 3097 
Q 1497 3097 1228 2736 
Q 959 2375 959 1747 
Q 959 1119 1226 758 
Q 1494 397 1959 397 
Q 2419 397 2687 759 
Q 2956 1122 2956 1747 
Q 2956 2369 2687 2733 
Q 2419 3097 1959 3097 
z
M 1959 3584 
Q 2709 3584 3137 3096 
Q 3566 2609 3566 1747 
Q 3566 888 3137 398 
Q 2709 -91 1959 -91 
Q 1206 -91 779 398 
Q 353 888 353 1747 
Q 353 2609 779 3096 
Q 1206 3584 1959 3584 
z
" transform="scale(0.015625)"/>
      <path id="DejaVuSans-63" d="M 3122 3366 
L 3122 2828 
Q 2878 2963 2633 3030 
Q 2388 3097 2138 3097 
Q 1578 3097 1268 2742 
Q 959 2388 959 1747 
Q 959 1106 1268 751 
Q 1578 397 2138 397 
Q 2388 397 2633 464 
Q 2878 531 3122 666 
L 3122 134 
Q 2881 22 2623 -34 
Q 2366 -91 2075 -91 
Q 1284 -91 818 406 
Q 353 903 353 1747 
Q 353 2603 823 3093 
Q 1294 3584 2113 3584 
Q 2378 3584 2631 3529 
Q 2884 3475 3122 3366 
z
" transform="scale(0.015625)"/>
      <path id="DejaVuSans-6b" d="M 581 4863 
L 1159 4863 
L 1159 1991 
L 2875 3500 
L 3609 3500 
L 1753 1863 
L 3688 0 
L 2938 0 
L 1159 1709 
L 1159 0 
L 581 0 
L 581 4863 
z
" transform="scale(0.015625)"/>
     </defs>
     <use xlink:href="#DejaVuSans-64"/>
     <use xlink:href="#DejaVuSans-6f" x="63.476562"/>
     <use xlink:href="#DejaVuSans-63" x="124.658203"/>
     <use xlink:href="#DejaVuSans-6b" x="179.638672"/>
     <use xlink:href="#DejaVuSans-65" x="233.923828"/>
     <use xlink:href="#DejaVuSans-72" x="295.447266"/>
    </g>
   </g>
   <g id="patch_23">
    <path d="M 147.345135 210.239104 
Q 135.575107 200.362878 124.661542 191.20531 
" style="fill: none; stroke: #000000; stroke-linecap: round"/>
    <path d="M 127.507306 197.770493 
L 124.661542 191.20531 
L 131.621147 192.867808 
" style="fill: none; stroke: #000000; stroke-linecap: round"/>
   </g>
   <g id="text_21">
    <g id="patch_24">
     <path d="M 141.73807 243.509712 
L 194.73057 243.509712 
Q 202.73057 243.509712 202.73057 235.509712 
L 202.73057 220.024712 
Q 202.73057 212.024712 194.73057 212.024712 
L 141.73807 212.024712 
Q 133.73807 212.024712 133.73807 220.024712 
L 133.73807 235.509712 
Q 133.73807 243.509712 141.73807 243.509712 
z
" style="fill: #90ee90; opacity: 0.5; stroke: #000000; stroke-linejoin: miter"/>
    </g>
    <!-- official -->
    <g transform="translate(141.73807 232.182212)scale(0.16 -0.16)">
     <defs>
      <path id="DejaVuSans-61" d="M 2194 1759 
Q 1497 1759 1228 1600 
Q 959 1441 959 1056 
Q 959 750 1161 570 
Q 1363 391 1709 391 
Q 2188 391 2477 730 
Q 2766 1069 2766 1631 
L 2766 1759 
L 2194 1759 
z
M 3341 1997 
L 3341 0 
L 2766 0 
L 2766 531 
Q 2569 213 2275 61 
Q 1981 -91 1556 -91 
Q 1019 -91 701 211 
Q 384 513 384 1019 
Q 384 1609 779 1909 
Q 1175 2209 1959 2209 
L 2766 2209 
L 2766 2266 
Q 2766 2663 2505 2880 
Q 2244 3097 1772 3097 
Q 1472 3097 1187 3025 
Q 903 2953 641 2809 
L 641 3341 
Q 956 3463 1253 3523 
Q 1550 3584 1831 3584 
Q 2591 3584 2966 3190 
Q 3341 2797 3341 1997 
z
" transform="scale(0.015625)"/>
      <path id="DejaVuSans-6c" d="M 603 4863 
L 1178 4863 
L 1178 0 
L 603 0 
L 603 4863 
z
" transform="scale(0.015625)"/>
     </defs>
     <use xlink:href="#DejaVuSans-6f"/>
     <use xlink:href="#DejaVuSans-66" x="61.181641"/>
     <use xlink:href="#DejaVuSans-66" x="96.386719"/>
     <use xlink:href="#DejaVuSans-69" x="131.591797"/>
     <use xlink:href="#DejaVuSans-63" x="159.375"/>
     <use xlink:href="#DejaVuSans-69" x="214.355469"/>
     <use xlink:href="#DejaVuSans-61" x="242.138672"/>
     <use xlink:href="#DejaVuSans-6c" x="303.417969"/>
    </g>
   </g>
  </g>
 </g>
 <defs>
  <clipPath id="p985ac31528">
   <rect x="64.225" y="52.306616" width="396.318533" height="242.298196"/>
  </clipPath>
 </defs>
</svg>
